<svg xmlns="http://www.w3.org/2000/svg" viewBox="0 0 256 256" role="img" aria-labelledby="title desc">
  <title id="title">ManaVault logo</title>
  <desc id="desc">A simplified claret vault cube for the ManaVault app.</desc>
  <defs>
    <linearGradient id="top" x1="84" y1="48" x2="172" y2="111" gradientUnits="userSpaceOnUse">
      <stop offset="0" stop-color="#c64f72"/>
      <stop offset="1" stop-color="#bd1b50"/>
    </linearGradient>
    <linearGradient id="left" x1="62" y1="86" x2="128" y2="178" gradientUnits="userSpaceOnUse">
      <stop offset="0" stop-color="#d99e8f"/>
      <stop offset="0.45" stop-color="#c64f72"/>
      <stop offset="1" stop-color="#bd1b50"/>
    </linearGradient>
    <linearGradient id="right" x1="128" y1="95" x2="194" y2="178" gradientUnits="userSpaceOnUse">
      <stop offset="0" stop-color="#a84633"/>
      <stop offset="1" stop-color="#5e2e27"/>
    </linearGradient>
    <filter id="shadow" x="-18%" y="-16%" width="136%" height="146%">
      <feDropShadow dx="0" dy="10" stdDeviation="8" flood-color="#18040d" flood-opacity="0.36"/>
    </filter>
  </defs>

  <g filter="url(#shadow)" stroke="#2a221c" stroke-width="7" stroke-linejoin="round">
    <path d="M128 36 59 76l69 40 69-40z" fill="url(#top)"/>
    <path d="M59 76v78l69 44v-82z" fill="url(#left)"/>
    <path d="M197 76v78l-69 44v-82z" fill="url(#right)"/>
  </g>
  <g fill="none" stroke-linejoin="round" stroke-linecap="round">
    <path d="M101 73 128 58l27 15-27 16z" stroke="#f7eadf" stroke-width="7" opacity="0.78"/>
    <path d="M87 101 109 114v28L87 129zM169 101l-22 13v28l22-13z" stroke="#f7eadf" stroke-width="6" opacity="0.5"/>
    <path d="M83 151 68 181M173 151l15 30" stroke="#2a221c" stroke-width="6" stroke-dasharray="2 10" opacity="0.55"/>
  </g>
</svg>
